<svg width="179" height="78" viewBox="0 0 179 78" fill="none" xmlns="http://www.w3.org/2000/svg">
<g filter="url(#filter0_d_1_23)">
<rect x="15" y="7" width="149" height="48" rx="6" fill="black"/>
<path d="M51.607 32.1485C51.5741 28.8507 54.2962 27.269 54.4179 27.1891C52.8881 24.9524 50.5047 24.6454 49.6564 24.6105C47.6297 24.4047 45.6999 25.8043 44.6717 25.8043C43.6457 25.8043 42.0571 24.6407 40.3765 24.6703C38.1656 24.7031 36.1278 25.9562 34.9901 27.9353C32.694 31.9183 34.4027 37.8211 36.64 41.0538C37.7338 42.6339 39.0382 44.4119 40.7495 44.3468C42.3989 44.2817 43.0212 43.28 45.0151 43.28C47.009 43.28 47.5689 44.3468 49.3136 44.3135C51.0873 44.2812 52.2118 42.7032 53.2966 41.1168C54.5523 39.2811 55.0693 37.5036 55.1 37.4137C55.0613 37.3957 51.6424 36.086 51.607 32.1485Z" fill="white"/>
<path d="M48.3288 22.4711C49.2363 21.3693 49.8512 19.8385 49.684 18.3145C48.3743 18.3674 46.7889 19.1849 45.8486 20.2856C45.0061 21.2624 44.2695 22.8177 44.4669 24.3141C45.9279 24.4274 47.4181 23.5707 48.3288 22.4711Z" fill="white"/>
<path d="M72.004 17.916C72.5907 17.916 73.1053 18.0307 73.548 18.26C73.996 18.4893 74.34 18.8173 74.58 19.244C74.8253 19.6653 74.948 20.156 74.948 20.716C74.948 21.276 74.8253 21.7667 74.58 22.188C74.34 22.604 73.996 22.9267 73.548 23.156C73.1053 23.3853 72.5907 23.5 72.004 23.5H70.052V17.916H72.004ZM71.964 22.548C72.5507 22.548 73.004 22.388 73.324 22.068C73.644 21.748 73.804 21.2973 73.804 20.716C73.804 20.1347 73.644 19.6813 73.324 19.356C73.004 19.0253 72.5507 18.86 71.964 18.86H71.172V22.548H71.964ZM77.7544 23.572C77.3277 23.572 76.9437 23.4787 76.6024 23.292C76.261 23.1 75.9917 22.8307 75.7944 22.484C75.6024 22.1373 75.5064 21.7373 75.5064 21.284C75.5064 20.8307 75.605 20.4307 75.8024 20.084C76.005 19.7373 76.2797 19.4707 76.6264 19.284C76.973 19.092 77.3597 18.996 77.7864 18.996C78.213 18.996 78.5997 19.092 78.9464 19.284C79.293 19.4707 79.565 19.7373 79.7624 20.084C79.965 20.4307 80.0664 20.8307 80.0664 21.284C80.0664 21.7373 79.9624 22.1373 79.7544 22.484C79.5517 22.8307 79.2744 23.1 78.9224 23.292C78.5757 23.4787 78.1864 23.572 77.7544 23.572ZM77.7544 22.596C77.957 22.596 78.1464 22.548 78.3224 22.452C78.5037 22.3507 78.6477 22.2013 78.7544 22.004C78.861 21.8067 78.9144 21.5667 78.9144 21.284C78.9144 20.8627 78.8024 20.54 78.5784 20.316C78.3597 20.0867 78.0904 19.972 77.7704 19.972C77.4504 19.972 77.181 20.0867 76.9624 20.316C76.749 20.54 76.6424 20.8627 76.6424 21.284C76.6424 21.7053 76.7464 22.0307 76.9544 22.26C77.1677 22.484 77.4344 22.596 77.7544 22.596ZM87.0319 19.068L85.7359 23.5H84.5279L83.7199 20.404L82.9119 23.5H81.6959L80.3919 19.068H81.5279L82.3119 22.444L83.1599 19.068H84.3439L85.1759 22.436L85.9599 19.068H87.0319ZM90.0939 19.004C90.6219 19.004 91.0486 19.172 91.3739 19.508C91.6993 19.8387 91.8619 20.3027 91.8619 20.9V23.5H90.7419V21.052C90.7419 20.7 90.6539 20.4307 90.4779 20.244C90.3019 20.052 90.0619 19.956 89.7579 19.956C89.4486 19.956 89.2033 20.052 89.0219 20.244C88.8459 20.4307 88.7579 20.7 88.7579 21.052V23.5H87.6379V19.068H88.7579V19.62C88.9073 19.428 89.0966 19.2787 89.3259 19.172C89.5606 19.06 89.8166 19.004 90.0939 19.004ZM94.047 17.58V23.5H92.927V17.58H94.047ZM97.1216 23.572C96.6949 23.572 96.3109 23.4787 95.9696 23.292C95.6282 23.1 95.3589 22.8307 95.1616 22.484C94.9696 22.1373 94.8736 21.7373 94.8736 21.284C94.8736 20.8307 94.9722 20.4307 95.1696 20.084C95.3722 19.7373 95.6469 19.4707 95.9936 19.284C96.3402 19.092 96.7269 18.996 97.1536 18.996C97.5802 18.996 97.9669 19.092 98.3136 19.284C98.6602 19.4707 98.9322 19.7373 99.1296 20.084C99.3322 20.4307 99.4336 20.8307 99.4336 21.284C99.4336 21.7373 99.3296 22.1373 99.1216 22.484C98.9189 22.8307 98.6416 23.1 98.2896 23.292C97.9429 23.4787 97.5536 23.572 97.1216 23.572ZM97.1216 22.596C97.3242 22.596 97.5136 22.548 97.6896 22.452C97.8709 22.3507 98.0149 22.2013 98.1216 22.004C98.2282 21.8067 98.2816 21.5667 98.2816 21.284C98.2816 20.8627 98.1696 20.54 97.9456 20.316C97.7269 20.0867 97.4576 19.972 97.1376 19.972C96.8176 19.972 96.5482 20.0867 96.3296 20.316C96.1162 20.54 96.0096 20.8627 96.0096 21.284C96.0096 21.7053 96.1136 22.0307 96.3216 22.26C96.5349 22.484 96.8016 22.596 97.1216 22.596ZM99.9671 21.268C99.9671 20.82 100.055 20.4227 100.231 20.076C100.412 19.7293 100.655 19.4627 100.959 19.276C101.268 19.0893 101.612 18.996 101.991 18.996C102.322 18.996 102.61 19.0627 102.855 19.196C103.106 19.3293 103.306 19.4973 103.455 19.7V19.068H104.583V23.5H103.455V22.852C103.311 23.06 103.111 23.2333 102.855 23.372C102.604 23.5053 102.314 23.572 101.983 23.572C101.61 23.572 101.268 23.476 100.959 23.284C100.655 23.092 100.412 22.8227 100.231 22.476C100.055 22.124 99.9671 21.7213 99.9671 21.268ZM103.455 21.284C103.455 21.012 103.402 20.78 103.295 20.588C103.188 20.3907 103.044 20.2413 102.863 20.14C102.682 20.0333 102.487 19.98 102.279 19.98C102.071 19.98 101.879 20.0307 101.703 20.132C101.527 20.2333 101.383 20.3827 101.271 20.58C101.164 20.772 101.111 21.0013 101.111 21.268C101.111 21.5347 101.164 21.7693 101.271 21.972C101.383 22.1693 101.527 22.3213 101.703 22.428C101.884 22.5347 102.076 22.588 102.279 22.588C102.487 22.588 102.682 22.5373 102.863 22.436C103.044 22.3293 103.188 22.18 103.295 21.988C103.402 21.7907 103.455 21.556 103.455 21.284ZM105.389 21.268C105.389 20.82 105.477 20.4227 105.653 20.076C105.834 19.7293 106.08 19.4627 106.389 19.276C106.698 19.0893 107.042 18.996 107.421 18.996C107.709 18.996 107.984 19.06 108.245 19.188C108.506 19.3107 108.714 19.476 108.869 19.684V17.58H110.005V23.5H108.869V22.844C108.73 23.0627 108.536 23.2387 108.285 23.372C108.034 23.5053 107.744 23.572 107.413 23.572C107.04 23.572 106.698 23.476 106.389 23.284C106.08 23.092 105.834 22.8227 105.653 22.476C105.477 22.124 105.389 21.7213 105.389 21.268ZM108.877 21.284C108.877 21.012 108.824 20.78 108.717 20.588C108.61 20.3907 108.466 20.2413 108.285 20.14C108.104 20.0333 107.909 19.98 107.701 19.98C107.493 19.98 107.301 20.0307 107.125 20.132C106.949 20.2333 106.805 20.3827 106.693 20.58C106.586 20.772 106.533 21.0013 106.533 21.268C106.533 21.5347 106.586 21.7693 106.693 21.972C106.805 22.1693 106.949 22.3213 107.125 22.428C107.306 22.5347 107.498 22.588 107.701 22.588C107.909 22.588 108.104 22.5373 108.285 22.436C108.466 22.3293 108.61 22.18 108.717 21.988C108.824 21.7907 108.877 21.556 108.877 21.284ZM114.973 23.572C114.546 23.572 114.162 23.4787 113.821 23.292C113.48 23.1 113.21 22.8307 113.013 22.484C112.821 22.1373 112.725 21.7373 112.725 21.284C112.725 20.8307 112.824 20.4307 113.021 20.084C113.224 19.7373 113.498 19.4707 113.845 19.284C114.192 19.092 114.578 18.996 115.005 18.996C115.432 18.996 115.818 19.092 116.165 19.284C116.512 19.4707 116.784 19.7373 116.981 20.084C117.184 20.4307 117.285 20.8307 117.285 21.284C117.285 21.7373 117.181 22.1373 116.973 22.484C116.77 22.8307 116.493 23.1 116.141 23.292C115.794 23.4787 115.405 23.572 114.973 23.572ZM114.973 22.596C115.176 22.596 115.365 22.548 115.541 22.452C115.722 22.3507 115.866 22.2013 115.973 22.004C116.08 21.8067 116.133 21.5667 116.133 21.284C116.133 20.8627 116.021 20.54 115.797 20.316C115.578 20.0867 115.309 19.972 114.989 19.972C114.669 19.972 114.4 20.0867 114.181 20.316C113.968 20.54 113.861 20.8627 113.861 21.284C113.861 21.7053 113.965 22.0307 114.173 22.26C114.386 22.484 114.653 22.596 114.973 22.596ZM120.563 19.004C121.091 19.004 121.517 19.172 121.843 19.508C122.168 19.8387 122.331 20.3027 122.331 20.9V23.5H121.211V21.052C121.211 20.7 121.123 20.4307 120.947 20.244C120.771 20.052 120.531 19.956 120.227 19.956C119.917 19.956 119.672 20.052 119.491 20.244C119.315 20.4307 119.227 20.7 119.227 21.052V23.5H118.107V19.068H119.227V19.62C119.376 19.428 119.565 19.2787 119.795 19.172C120.029 19.06 120.285 19.004 120.563 19.004ZM126.606 19.988V22.132C126.606 22.2813 126.641 22.3907 126.71 22.46C126.785 22.524 126.907 22.556 127.078 22.556H127.598V23.5H126.894C125.95 23.5 125.478 23.0413 125.478 22.124V19.988H124.95V19.068H125.478V17.972H126.606V19.068H127.598V19.988H126.606ZM130.9 19.004C131.236 19.004 131.534 19.0787 131.796 19.228C132.057 19.372 132.26 19.588 132.404 19.876C132.553 20.1587 132.628 20.5 132.628 20.9V23.5H131.508V21.052C131.508 20.7 131.42 20.4307 131.244 20.244C131.068 20.052 130.828 19.956 130.524 19.956C130.214 19.956 129.969 20.052 129.788 20.244C129.612 20.4307 129.524 20.7 129.524 21.052V23.5H128.404V17.58H129.524V19.62C129.668 19.428 129.86 19.2787 130.1 19.172C130.34 19.06 130.606 19.004 130.9 19.004ZM137.813 21.188C137.813 21.348 137.802 21.492 137.781 21.62H134.541C134.567 21.94 134.679 22.1907 134.877 22.372C135.074 22.5533 135.317 22.644 135.605 22.644C136.021 22.644 136.317 22.4653 136.493 22.108H137.701C137.573 22.5347 137.327 22.8867 136.965 23.164C136.602 23.436 136.157 23.572 135.629 23.572C135.202 23.572 134.818 23.4787 134.477 23.292C134.141 23.1 133.877 22.8307 133.685 22.484C133.498 22.1373 133.405 21.7373 133.405 21.284C133.405 20.8253 133.498 20.4227 133.685 20.076C133.871 19.7293 134.133 19.4627 134.469 19.276C134.805 19.0893 135.191 18.996 135.629 18.996C136.05 18.996 136.426 19.0867 136.757 19.268C137.093 19.4493 137.351 19.708 137.533 20.044C137.719 20.3747 137.813 20.756 137.813 21.188ZM136.653 20.868C136.647 20.58 136.543 20.3507 136.341 20.18C136.138 20.004 135.89 19.916 135.597 19.916C135.319 19.916 135.085 20.0013 134.893 20.172C134.706 20.3373 134.591 20.5693 134.549 20.868H136.653ZM77.452 40.372H73.004L72.268 42.5H69.916L73.932 31.316H76.54L80.556 42.5H78.188L77.452 40.372ZM76.844 38.58L75.228 33.908L73.612 38.58H76.844ZM84.2971 34.916C84.5851 34.5107 84.9798 34.1747 85.4811 33.908C85.9931 33.6307 86.5745 33.492 87.2251 33.492C87.9825 33.492 88.6651 33.6787 89.2731 34.052C89.8918 34.4253 90.3771 34.9587 90.7291 35.652C91.0918 36.3347 91.2731 37.1293 91.2731 38.036C91.2731 38.9427 91.0918 39.748 90.7291 40.452C90.3771 41.1453 89.8918 41.684 89.2731 42.068C88.6651 42.452 87.9825 42.644 87.2251 42.644C86.5745 42.644 85.9985 42.5107 85.4971 42.244C85.0065 41.9773 84.6065 41.6413 84.2971 41.236V46.724H82.0571V33.636H84.2971V34.916ZM88.9851 38.036C88.9851 37.5027 88.8731 37.044 88.6491 36.66C88.4358 36.2653 88.1478 35.9667 87.7851 35.764C87.4331 35.5613 87.0491 35.46 86.6331 35.46C86.2278 35.46 85.8438 35.5667 85.4811 35.78C85.1291 35.9827 84.8411 36.2813 84.6171 36.676C84.4038 37.0707 84.2971 37.5347 84.2971 38.068C84.2971 38.6013 84.4038 39.0653 84.6171 39.46C84.8411 39.8547 85.1291 40.1587 85.4811 40.372C85.8438 40.5747 86.2278 40.676 86.6331 40.676C87.0491 40.676 87.4331 40.5693 87.7851 40.356C88.1478 40.1427 88.4358 39.8387 88.6491 39.444C88.8731 39.0493 88.9851 38.58 88.9851 38.036ZM95.1409 34.916C95.4289 34.5107 95.8235 34.1747 96.3249 33.908C96.8369 33.6307 97.4182 33.492 98.0689 33.492C98.8262 33.492 99.5089 33.6787 100.117 34.052C100.736 34.4253 101.221 34.9587 101.573 35.652C101.936 36.3347 102.117 37.1293 102.117 38.036C102.117 38.9427 101.936 39.748 101.573 40.452C101.221 41.1453 100.736 41.684 100.117 42.068C99.5089 42.452 98.8262 42.644 98.0689 42.644C97.4182 42.644 96.8422 42.5107 96.3409 42.244C95.8502 41.9773 95.4502 41.6413 95.1409 41.236V46.724H92.9009V33.636H95.1409V34.916ZM99.8289 38.036C99.8289 37.5027 99.7169 37.044 99.4929 36.66C99.2795 36.2653 98.9915 35.9667 98.6289 35.764C98.2769 35.5613 97.8929 35.46 97.4769 35.46C97.0715 35.46 96.6875 35.5667 96.3249 35.78C95.9729 35.9827 95.6849 36.2813 95.4609 36.676C95.2475 37.0707 95.1409 37.5347 95.1409 38.068C95.1409 38.6013 95.2475 39.0653 95.4609 39.46C95.6849 39.8547 95.9729 40.1587 96.3249 40.372C96.6875 40.5747 97.0715 40.676 97.4769 40.676C97.8929 40.676 98.2769 40.5693 98.6289 40.356C98.9915 40.1427 99.2795 39.8387 99.4929 39.444C99.7169 39.0493 99.8289 38.58 99.8289 38.036ZM111.413 42.612C110.634 42.612 109.93 42.4787 109.301 42.212C108.682 41.9453 108.192 41.5613 107.829 41.06C107.466 40.5587 107.28 39.9667 107.269 39.284H109.669C109.701 39.7427 109.861 40.1053 110.149 40.372C110.448 40.6387 110.853 40.772 111.365 40.772C111.888 40.772 112.298 40.6493 112.597 40.404C112.896 40.148 113.045 39.8173 113.045 39.412C113.045 39.0813 112.944 38.8093 112.741 38.596C112.538 38.3827 112.282 38.2173 111.973 38.1C111.674 37.972 111.258 37.8333 110.725 37.684C110 37.4707 109.408 37.2627 108.949 37.06C108.501 36.8467 108.112 36.532 107.781 36.116C107.461 35.6893 107.301 35.124 107.301 34.42C107.301 33.7587 107.466 33.1827 107.797 32.692C108.128 32.2013 108.592 31.828 109.189 31.572C109.786 31.3053 110.469 31.172 111.237 31.172C112.389 31.172 113.322 31.4547 114.037 32.02C114.762 32.5747 115.162 33.3533 115.237 34.356H112.773C112.752 33.972 112.586 33.6573 112.277 33.412C111.978 33.156 111.578 33.028 111.077 33.028C110.64 33.028 110.288 33.14 110.021 33.364C109.765 33.588 109.637 33.9133 109.637 34.34C109.637 34.6387 109.733 34.8893 109.925 35.092C110.128 35.284 110.373 35.444 110.661 35.572C110.96 35.6893 111.376 35.828 111.909 35.988C112.634 36.2013 113.226 36.4147 113.685 36.628C114.144 36.8413 114.538 37.1613 114.869 37.588C115.2 38.0147 115.365 38.5747 115.365 39.268C115.365 39.8653 115.21 40.42 114.901 40.932C114.592 41.444 114.138 41.8547 113.541 42.164C112.944 42.4627 112.234 42.612 111.413 42.612ZM119.915 35.476V39.764C119.915 40.0627 119.984 40.2813 120.123 40.42C120.272 40.548 120.518 40.612 120.859 40.612H121.899V42.5H120.491C118.603 42.5 117.659 41.5827 117.659 39.748V35.476H116.603V33.636H117.659V31.444H119.915V33.636H121.899V35.476H119.915ZM127.446 42.644C126.593 42.644 125.825 42.4573 125.142 42.084C124.46 41.7 123.921 41.1613 123.526 40.468C123.142 39.7747 122.95 38.9747 122.95 38.068C122.95 37.1613 123.148 36.3613 123.542 35.668C123.948 34.9747 124.497 34.4413 125.19 34.068C125.884 33.684 126.657 33.492 127.51 33.492C128.364 33.492 129.137 33.684 129.83 34.068C130.524 34.4413 131.068 34.9747 131.462 35.668C131.868 36.3613 132.07 37.1613 132.07 38.068C132.07 38.9747 131.862 39.7747 131.446 40.468C131.041 41.1613 130.486 41.7 129.782 42.084C129.089 42.4573 128.31 42.644 127.446 42.644ZM127.446 40.692C127.852 40.692 128.23 40.596 128.582 40.404C128.945 40.2013 129.233 39.9027 129.446 39.508C129.66 39.1133 129.766 38.6333 129.766 38.068C129.766 37.2253 129.542 36.58 129.094 36.132C128.657 35.6733 128.118 35.444 127.478 35.444C126.838 35.444 126.3 35.6733 125.862 36.132C125.436 36.58 125.222 37.2253 125.222 38.068C125.222 38.9107 125.43 39.5613 125.846 40.02C126.273 40.468 126.806 40.692 127.446 40.692ZM135.953 35.012C136.241 34.5427 136.615 34.1747 137.073 33.908C137.543 33.6413 138.076 33.508 138.673 33.508V35.86H138.081C137.377 35.86 136.844 36.0253 136.481 36.356C136.129 36.6867 135.953 37.2627 135.953 38.084V42.5H133.713V33.636H135.953V35.012ZM148.422 37.876C148.422 38.196 148.401 38.484 148.358 38.74H141.878C141.931 39.38 142.155 39.8813 142.55 40.244C142.945 40.6067 143.43 40.788 144.006 40.788C144.838 40.788 145.43 40.4307 145.782 39.716H148.198C147.942 40.5693 147.451 41.2733 146.726 41.828C146.001 42.372 145.11 42.644 144.054 42.644C143.201 42.644 142.433 42.4573 141.75 42.084C141.078 41.7 140.55 41.1613 140.166 40.468C139.793 39.7747 139.606 38.9747 139.606 38.068C139.606 37.1507 139.793 36.3453 140.166 35.652C140.539 34.9587 141.062 34.4253 141.734 34.052C142.406 33.6787 143.179 33.492 144.054 33.492C144.897 33.492 145.649 33.6733 146.31 34.036C146.982 34.3987 147.499 34.916 147.862 35.588C148.235 36.2493 148.422 37.012 148.422 37.876ZM146.102 37.236C146.091 36.66 145.883 36.2013 145.478 35.86C145.073 35.508 144.577 35.332 143.99 35.332C143.435 35.332 142.966 35.5027 142.582 35.844C142.209 36.1747 141.979 36.6387 141.894 37.236H146.102Z" fill="white"/>
</g>
<defs>
<filter id="filter0_d_1_23" x="0" y="0" width="179" height="78" filterUnits="userSpaceOnUse" color-interpolation-filters="sRGB">
<feFlood flood-opacity="0" result="BackgroundImageFix"/>
<feColorMatrix in="SourceAlpha" type="matrix" values="0 0 0 0 0 0 0 0 0 0 0 0 0 0 0 0 0 0 127 0" result="hardAlpha"/>
<feMorphology radius="3" operator="dilate" in="SourceAlpha" result="effect1_dropShadow_1_23"/>
<feOffset dy="8"/>
<feGaussianBlur stdDeviation="6"/>
<feComposite in2="hardAlpha" operator="out"/>
<feColorMatrix type="matrix" values="0 0 0 0 0 0 0 0 0 0 0 0 0 0 0 0 0 0 0.25 0"/>
<feBlend mode="normal" in2="BackgroundImageFix" result="effect1_dropShadow_1_23"/>
<feBlend mode="normal" in="SourceGraphic" in2="effect1_dropShadow_1_23" result="shape"/>
</filter>
</defs>
</svg>
