<svg width="184" height="48" viewBox="0 0 184 48" fill="none" xmlns="http://www.w3.org/2000/svg">
<g opacity="0.78">
<path d="M29.2148 44H10.8068C4.84852 44 0.0108032 39.1606 0.0108032 33.2003V14.7997C0.0108032 8.83937 4.84852 4 10.8068 4H29.2148C35.1731 4 40.0108 8.83937 40.0108 14.7997V33.214C40.0108 39.1743 35.1731 44 29.2148 44Z" fill="#118B3D"/>
<g filter="url(#filter0_d_1_142)">
<path d="M9.00299 30.9809V22.6689C9.00299 22.2319 9.28954 21.847 9.70343 21.7118L13.3861 20.4946V24.9159C13.3861 25.4673 13.7363 25.9562 14.2563 26.1539C15.5192 26.622 17.7585 27.4543 18.3634 27.6519C19.0427 27.8704 18.9578 28.6298 18.8835 28.9315C18.841 28.9523 18.8092 28.9731 18.7667 28.9939L10.3826 31.938C9.85201 32.1252 9.2577 31.8547 9.06667 31.3346C9.02422 31.2202 9.00299 31.1057 9.00299 30.9809Z" fill="white" fill-opacity="0.84"/>
<path d="M13.3858 20.4941V17.3212C13.3858 16.593 13.9907 16 14.7336 16C14.8928 16 15.0414 16.0312 15.19 16.0832L18.9044 17.394L18.9681 17.5188C19.1697 18.0598 18.8938 18.6528 18.342 18.8504C18.3313 18.8504 18.3207 18.8608 18.2995 18.8608L13.3858 20.4941Z" fill="white" fill-opacity="0.84"/>
<path d="M18.9044 17.395L18.9681 17.5199C19.1697 18.0608 18.8938 18.6538 18.342 18.8514C18.3313 18.8514 18.3207 18.8618 18.2995 18.8618L13.3858 20.4951V24.9164C13.3858 25.4678 13.736 25.9567 14.256 26.1544C15.519 26.6225 17.7583 27.4547 18.3632 27.6524C19.0424 27.8709 18.9575 28.6303 18.8832 28.932C19.4351 28.6199 19.7853 28.0685 19.8277 27.4443V18.789C19.8277 18.3937 19.6685 18.0192 19.4032 17.7279C19.2653 17.5823 19.0955 17.4574 18.9044 17.395Z" fill="white"/>
<path d="M31.003 17.0203V25.3323C31.003 25.7692 30.727 26.1541 30.3025 26.2894L26.6199 27.5065V23.0852C26.6199 22.5339 26.2697 22.0449 25.7497 21.8473C24.4974 21.3791 22.2475 20.5469 21.6425 20.3492C20.9633 20.1308 21.0482 19.3713 21.1225 19.0697C21.165 19.0488 21.1968 19.028 21.2392 19.0072L29.6233 16.0632C30.1646 15.8759 30.7483 16.1464 30.9393 16.677C30.9817 16.781 31.003 16.9058 31.003 17.0203Z" fill="white" fill-opacity="0.84"/>
<path d="M20.164 21.7429V28.973C20.1533 27.7039 20.164 23.7403 20.164 21.7429Z" fill="white"/>
<path d="M26.6171 27.5059V30.6788C26.6171 31.407 26.0122 32 25.2693 32C25.1101 32 24.9615 31.9688 24.813 31.9167L21.1091 30.606L21.0454 30.4811C20.8438 29.9402 21.1197 29.3472 21.6716 29.1495C21.6822 29.1495 21.6928 29.1391 21.714 29.1391L26.6171 27.5059Z" fill="white" fill-opacity="0.84"/>
<path d="M21.1138 30.6046L21.0501 30.4797C20.8485 29.9388 21.1244 29.3458 21.6763 29.1482C21.6869 29.1482 21.6975 29.1378 21.7187 29.1378L26.6324 27.5045V23.0832C26.6324 22.5318 26.2822 22.0429 25.7622 21.8452C24.5099 21.3771 22.26 20.5449 21.6551 20.3472C20.9758 20.1287 21.0607 19.3693 21.135 19.0676C20.5832 19.3797 20.2329 19.9415 20.1905 20.5553V29.2002C20.1905 29.5955 20.3391 29.97 20.615 30.2613C20.7424 30.4173 20.9228 30.5318 21.1138 30.6046Z" fill="white"/>
</g>
</g>
<path d="M69.2867 19.768C69.2867 21.0693 68.988 22.264 68.3907 23.352C67.7933 24.4187 66.876 25.2827 65.6387 25.944C64.4013 26.6053 62.8653 26.936 61.0307 26.936H57.6387V35H52.1667V12.536H61.0307C62.8227 12.536 64.3373 12.8453 65.5747 13.464C66.812 14.0827 67.74 14.936 68.3587 16.024C68.9773 17.112 69.2867 18.36 69.2867 19.768ZM60.6147 22.584C61.66 22.584 62.4387 22.3387 62.9507 21.848C63.4627 21.3573 63.7187 20.664 63.7187 19.768C63.7187 18.872 63.4627 18.1787 62.9507 17.688C62.4387 17.1973 61.66 16.952 60.6147 16.952H57.6387V22.584H60.6147ZM71.0474 26.04C71.0474 24.2053 71.3888 22.5947 72.0714 21.208C72.7754 19.8213 73.7248 18.7547 74.9194 18.008C76.1141 17.2613 77.4474 16.888 78.9194 16.888C80.1781 16.888 81.2768 17.144 82.2154 17.656C83.1754 18.168 83.9114 18.84 84.4234 19.672V17.144H89.8954V35H84.4234V32.472C83.8901 33.304 83.1434 33.976 82.1834 34.488C81.2448 35 80.1461 35.256 78.8874 35.256C77.4368 35.256 76.1141 34.8827 74.9194 34.136C73.7248 33.368 72.7754 32.2907 72.0714 30.904C71.3888 29.496 71.0474 27.8747 71.0474 26.04ZM84.4234 26.072C84.4234 24.7067 84.0394 23.6293 83.2714 22.84C82.5248 22.0507 81.6074 21.656 80.5194 21.656C79.4314 21.656 78.5034 22.0507 77.7354 22.84C76.9888 23.608 76.6154 24.6747 76.6154 26.04C76.6154 27.4053 76.9888 28.4933 77.7354 29.304C78.5034 30.0933 79.4314 30.488 80.5194 30.488C81.6074 30.488 82.5248 30.0933 83.2714 29.304C84.0394 28.5147 84.4234 27.4373 84.4234 26.072ZM112.094 17.144L100.894 43.48H95.0062L99.1022 34.392L91.8382 17.144H97.9502L102.078 28.312L106.174 17.144H112.094ZM113.657 30.84V26.424L123.769 11.96H129.881V26.104H132.505V30.84H129.881V35H124.409V30.84H113.657ZM124.793 17.976L119.417 26.104H124.793V17.976ZM161.169 12.536V35H155.697V21.528L150.673 35H146.257L141.201 21.496V35H135.729V12.536H142.193L148.497 28.088L154.737 12.536H161.169ZM181.936 25.784C181.936 26.296 181.904 26.8293 181.84 27.384H169.456C169.542 28.4933 169.894 29.3467 170.512 29.944C171.152 30.52 171.931 30.808 172.848 30.808C174.214 30.808 175.163 30.232 175.696 29.08H181.52C181.222 30.2533 180.678 31.3093 179.888 32.248C179.12 33.1867 178.15 33.9227 176.976 34.456C175.803 34.9893 174.491 35.256 173.04 35.256C171.291 35.256 169.734 34.8827 168.368 34.136C167.003 33.3893 165.936 32.3227 165.168 30.936C164.4 29.5493 164.016 27.928 164.016 26.072C164.016 24.216 164.39 22.5947 165.136 21.208C165.904 19.8213 166.971 18.7547 168.336 18.008C169.702 17.2613 171.27 16.888 173.04 16.888C174.768 16.888 176.304 17.2507 177.648 17.976C178.992 18.7013 180.038 19.736 180.784 21.08C181.552 22.424 181.936 23.992 181.936 25.784ZM176.336 24.344C176.336 23.4053 176.016 22.6587 175.376 22.104C174.736 21.5493 173.936 21.272 172.976 21.272C172.059 21.272 171.28 21.5387 170.64 22.072C170.022 22.6053 169.638 23.3627 169.488 24.344H176.336Z" fill="white"/>
<defs>
<filter id="filter0_d_1_142" x="5.00299" y="16" width="30" height="24" filterUnits="userSpaceOnUse" color-interpolation-filters="sRGB">
<feFlood flood-opacity="0" result="BackgroundImageFix"/>
<feColorMatrix in="SourceAlpha" type="matrix" values="0 0 0 0 0 0 0 0 0 0 0 0 0 0 0 0 0 0 127 0" result="hardAlpha"/>
<feOffset dy="4"/>
<feGaussianBlur stdDeviation="2"/>
<feComposite in2="hardAlpha" operator="out"/>
<feColorMatrix type="matrix" values="0 0 0 0 0 0 0 0 0 0 0 0 0 0 0 0 0 0 0.25 0"/>
<feBlend mode="normal" in2="BackgroundImageFix" result="effect1_dropShadow_1_142"/>
<feBlend mode="normal" in="SourceGraphic" in2="effect1_dropShadow_1_142" result="shape"/>
</filter>
</defs>
</svg>
