<svg width="300" height="150" viewBox="0 0 300 150" fill="none" xmlns="http://www.w3.org/2000/svg">
<path d="M300 150C300 130.302 296.12 110.796 288.582 92.5975C281.044 74.3987 269.995 57.8628 256.066 43.934C242.137 30.0052 225.601 18.9563 207.403 11.4181C189.204 3.87985 169.698 0 150 0C130.302 0 110.796 3.87985 92.5975 11.4181C74.3986 18.9563 57.8628 30.0052 43.934 43.934C30.0052 57.8628 18.9563 74.3987 11.4181 92.5975C3.87986 110.796 -1.72208e-06 130.302 0 150L84.5731 150C84.5731 141.408 86.2654 132.9 89.5534 124.962C92.8414 117.024 97.6607 109.812 103.736 103.736C109.812 97.6607 117.024 92.8414 124.962 89.5534C132.9 86.2654 141.408 84.5731 150 84.5731C158.592 84.5731 167.1 86.2654 175.038 89.5534C182.976 92.8414 190.188 97.6607 196.264 103.736C202.339 109.812 207.159 117.024 210.447 124.962C213.735 132.9 215.427 141.408 215.427 150H300Z" fill="#76FFA6" fill-opacity="0.5"/>
</svg>
