<svg width="50" height="48" viewBox="0 0 50 48" fill="none" xmlns="http://www.w3.org/2000/svg">
<g opacity="0.78">
<path d="M36.505 48H13.495C6.04715 48 0 42.1928 0 35.0403V12.9597C0 5.80725 6.04715 0 13.495 0H36.505C43.9529 0 50 5.80725 50 12.9597V35.0567C50 42.2092 43.9529 48 36.505 48Z" fill="#17A34A"/>
<path d="M7.30469 35.0115V21.9042C7.30469 21.2152 7.76591 20.6082 8.43212 20.3949L14.3597 18.4756V25.4476C14.3597 26.317 14.9234 27.088 15.7604 27.3997C17.7932 28.1379 21.3976 29.4503 22.3713 29.762C23.4646 30.1065 23.3279 31.304 23.2083 31.7798C23.14 31.8126 23.0888 31.8454 23.0204 31.8782L9.52539 36.5207C8.67127 36.816 7.71466 36.3895 7.40718 35.5692C7.33885 35.3888 7.30469 35.2083 7.30469 35.0115Z" fill="white" fill-opacity="0.84"/>
<path d="M14.3594 18.475V13.4716C14.3594 12.3233 15.3331 11.3882 16.5288 11.3882C16.7851 11.3882 17.0242 11.4374 17.2634 11.5194L23.2422 13.5864L23.3447 13.7833C23.6692 14.6363 23.2251 15.5714 22.3368 15.8831C22.3197 15.8831 22.3027 15.8995 22.2685 15.8995L14.3594 18.475Z" fill="white" fill-opacity="0.84"/>
<path d="M23.2422 13.5881L23.3447 13.785C23.6692 14.638 23.2251 15.5731 22.3368 15.8848C22.3197 15.8848 22.3027 15.9012 22.2685 15.9012L14.3594 18.4767V25.4487C14.3594 26.3181 14.9231 27.0892 15.7601 27.4008C17.7929 28.139 21.3973 29.4514 22.371 29.7631C23.4643 30.1076 23.3276 31.3051 23.208 31.7809C24.0963 31.2887 24.66 30.4193 24.7283 29.435V15.7864C24.7283 15.163 24.4721 14.5724 24.0451 14.1131C23.823 13.8834 23.5497 13.6866 23.2422 13.5881Z" fill="white"/>
<path d="M42.7172 12.9972V26.1045C42.7172 26.7935 42.2731 27.4005 41.5898 27.6138L35.6622 29.5331V22.5611C35.6622 21.6917 35.0985 20.9207 34.2615 20.609C32.2458 19.8708 28.6243 18.5584 27.6506 18.2467C26.5573 17.9022 26.694 16.7047 26.8136 16.2289C26.8819 16.1961 26.9331 16.1633 27.0015 16.1305L40.4965 11.488C41.3677 11.1927 42.3072 11.6192 42.6147 12.4559C42.6831 12.6199 42.7172 12.8168 42.7172 12.9972Z" fill="white" fill-opacity="0.84"/>
<path d="M25.2657 20.4443V31.8456C25.248 29.8442 25.2657 23.594 25.2657 20.4443Z" fill="white"/>
<path d="M35.6602 29.532V34.5354C35.6602 35.6837 34.6865 36.6188 33.4908 36.6188C33.2345 36.6188 32.9954 36.5696 32.7562 36.4876L26.7945 34.4206L26.692 34.2237C26.3674 33.3707 26.8116 32.4356 27.6999 32.1239C27.7169 32.1239 27.734 32.1075 27.7682 32.1075L35.6602 29.532Z" fill="white" fill-opacity="0.84"/>
<path d="M26.7987 34.4183L26.6962 34.2215C26.3716 33.3684 26.8157 32.4334 27.704 32.1217C27.7211 32.1217 27.7382 32.1053 27.7724 32.1053L35.6815 29.5298V22.5578C35.6815 21.6883 35.1178 20.9173 34.2807 20.6056C32.265 19.8674 28.6436 18.555 27.6699 18.2434C26.5766 17.8989 26.7133 16.7013 26.8328 16.2256C25.9446 16.7177 25.3808 17.6036 25.3125 18.5714V32.2037C25.3125 32.8271 25.5517 33.4177 25.9958 33.877C26.2008 34.1231 26.4912 34.3035 26.7987 34.4183Z" fill="white"/>
</g>
</svg>
