<svg width="179" height="78" viewBox="0 0 179 78" fill="none" xmlns="http://www.w3.org/2000/svg">
<g filter="url(#filter0_d_1_35)">
<rect x="15" y="7" width="149" height="48" rx="6" fill="black"/>
<path d="M37.4155 30.4416L23.8891 44.0045C23.2426 43.3913 22.8932 42.5503 22.8932 41.6389V20.366C22.8932 19.4374 23.2601 18.5961 23.9242 17.9656L37.4155 30.4416Z" fill="#2299F8"/>
<path d="M49.1068 31.0021C49.1068 32.2289 48.4424 33.3152 47.3413 33.9288L43.4973 36.0665L38.7261 31.6504L37.4156 30.4414L42.4659 25.3772L47.3413 28.0758C48.4424 28.6895 49.1068 29.7757 49.1068 31.0021Z" fill="#FFC107"/>
<path d="M37.4155 30.4415L23.9242 17.9655C24.0989 17.7899 24.3263 17.6323 24.5535 17.4922C25.6543 16.8264 26.9825 16.8086 28.1183 17.4397L42.4659 25.3773L37.4155 30.4415Z" fill="#5ACF5F"/>
<path d="M43.4972 36.0665L28.1183 44.5651C27.5767 44.8807 26.9647 45.0206 26.3706 45.0206C25.7417 45.0206 25.1127 44.863 24.5535 44.5127C24.3084 44.3724 24.0813 44.1972 23.8891 44.0044L37.4155 30.4414L38.7261 31.6504L43.4972 36.0665Z" fill="#F84437"/>
<path d="M63.5468 19.596C63.4188 19.3613 63.2428 19.1827 63.0188 19.06C62.7948 18.9373 62.5335 18.876 62.2348 18.876C61.9042 18.876 61.6108 18.9507 61.3548 19.1C61.0988 19.2493 60.8988 19.4627 60.7548 19.74C60.6108 20.0173 60.5388 20.3373 60.5388 20.7C60.5388 21.0733 60.6108 21.3987 60.7548 21.676C60.9042 21.9533 61.1095 22.1667 61.3708 22.316C61.6322 22.4653 61.9362 22.54 62.2828 22.54C62.7095 22.54 63.0588 22.428 63.3308 22.204C63.6028 21.9747 63.7815 21.6573 63.8668 21.252H61.9468V20.396H64.9708V21.372C64.8962 21.7613 64.7362 22.1213 64.4908 22.452C64.2455 22.7827 63.9282 23.0493 63.5388 23.252C63.1548 23.4493 62.7228 23.548 62.2428 23.548C61.7042 23.548 61.2162 23.428 60.7788 23.188C60.3468 22.9427 60.0055 22.604 59.7548 22.172C59.5095 21.74 59.3868 21.2493 59.3868 20.7C59.3868 20.1507 59.5095 19.66 59.7548 19.228C60.0055 18.7907 60.3468 18.452 60.7788 18.212C61.2162 17.9667 61.7015 17.844 62.2348 17.844C62.8642 17.844 63.4108 17.9987 63.8748 18.308C64.3388 18.612 64.6588 19.0413 64.8348 19.596H63.5468ZM69.9195 21.188C69.9195 21.348 69.9088 21.492 69.8875 21.62H66.6475C66.6741 21.94 66.7861 22.1907 66.9835 22.372C67.1808 22.5533 67.4235 22.644 67.7115 22.644C68.1275 22.644 68.4235 22.4653 68.5995 22.108H69.8075C69.6795 22.5347 69.4341 22.8867 69.0715 23.164C68.7088 23.436 68.2635 23.572 67.7355 23.572C67.3088 23.572 66.9248 23.4787 66.5835 23.292C66.2475 23.1 65.9835 22.8307 65.7915 22.484C65.6048 22.1373 65.5115 21.7373 65.5115 21.284C65.5115 20.8253 65.6048 20.4227 65.7915 20.076C65.9781 19.7293 66.2395 19.4627 66.5755 19.276C66.9115 19.0893 67.2981 18.996 67.7355 18.996C68.1568 18.996 68.5328 19.0867 68.8635 19.268C69.1995 19.4493 69.4581 19.708 69.6395 20.044C69.8261 20.3747 69.9195 20.756 69.9195 21.188ZM68.7595 20.868C68.7541 20.58 68.6501 20.3507 68.4475 20.18C68.2448 20.004 67.9968 19.916 67.7035 19.916C67.4261 19.916 67.1915 20.0013 66.9995 20.172C66.8128 20.3373 66.6981 20.5693 66.6555 20.868H68.7595ZM72.041 19.988V22.132C72.041 22.2813 72.0756 22.3907 72.145 22.46C72.2196 22.524 72.3423 22.556 72.513 22.556H73.033V23.5H72.329C71.385 23.5 70.913 23.0413 70.913 22.124V19.988H70.385V19.068H70.913V17.972H72.041V19.068H73.033V19.988H72.041ZM76.3128 18.54C76.1154 18.54 75.9501 18.4787 75.8168 18.356C75.6888 18.228 75.6248 18.0707 75.6248 17.884C75.6248 17.6973 75.6888 17.5427 75.8168 17.42C75.9501 17.292 76.1154 17.228 76.3128 17.228C76.5101 17.228 76.6728 17.292 76.8008 17.42C76.9341 17.5427 77.0008 17.6973 77.0008 17.884C77.0008 18.0707 76.9341 18.228 76.8008 18.356C76.6728 18.4787 76.5101 18.54 76.3128 18.54ZM76.8648 19.068V23.5H75.7448V19.068H76.8648ZM79.2753 19.988V22.132C79.2753 22.2813 79.31 22.3907 79.3793 22.46C79.454 22.524 79.5767 22.556 79.7473 22.556H80.2673V23.5H79.5633C78.6193 23.5 78.1473 23.0413 78.1473 22.124V19.988H77.6193V19.068H78.1473V17.972H79.2753V19.068H80.2673V19.988H79.2753ZM85.5711 23.556C85.0485 23.556 84.5685 23.4333 84.1311 23.188C83.6938 22.9427 83.3471 22.604 83.0911 22.172C82.8351 21.7347 82.7071 21.2413 82.7071 20.692C82.7071 20.148 82.8351 19.66 83.0911 19.228C83.3471 18.7907 83.6938 18.4493 84.1311 18.204C84.5685 17.9587 85.0485 17.836 85.5711 17.836C86.0991 17.836 86.5791 17.9587 87.0111 18.204C87.4485 18.4493 87.7925 18.7907 88.0431 19.228C88.2991 19.66 88.4271 20.148 88.4271 20.692C88.4271 21.2413 88.2991 21.7347 88.0431 22.172C87.7925 22.604 87.4485 22.9427 87.0111 23.188C86.5738 23.4333 86.0938 23.556 85.5711 23.556ZM85.5711 22.556C85.9071 22.556 86.2031 22.4813 86.4591 22.332C86.7151 22.1773 86.9151 21.9587 87.0591 21.676C87.2031 21.3933 87.2751 21.0653 87.2751 20.692C87.2751 20.3187 87.2031 19.9933 87.0591 19.716C86.9151 19.4333 86.7151 19.2173 86.4591 19.068C86.2031 18.9187 85.9071 18.844 85.5711 18.844C85.2351 18.844 84.9365 18.9187 84.6751 19.068C84.4191 19.2173 84.2191 19.4333 84.0751 19.716C83.9311 19.9933 83.8591 20.3187 83.8591 20.692C83.8591 21.0653 83.9311 21.3933 84.0751 21.676C84.2191 21.9587 84.4191 22.1773 84.6751 22.332C84.9365 22.4813 85.2351 22.556 85.5711 22.556ZM91.7164 19.004C92.2444 19.004 92.6711 19.172 92.9964 19.508C93.3217 19.8387 93.4844 20.3027 93.4844 20.9V23.5H92.3644V21.052C92.3644 20.7 92.2764 20.4307 92.1004 20.244C91.9244 20.052 91.6844 19.956 91.3804 19.956C91.0711 19.956 90.8257 20.052 90.6444 20.244C90.4684 20.4307 90.3804 20.7 90.3804 21.052V23.5H89.2604V19.068H90.3804V19.62C90.5297 19.428 90.7191 19.2787 90.9484 19.172C91.1831 19.06 91.4391 19.004 91.7164 19.004ZM67.9868 34.692C67.7308 34.2227 67.3788 33.8653 66.9308 33.62C66.4828 33.3747 65.9602 33.252 65.3628 33.252C64.7015 33.252 64.1148 33.4013 63.6028 33.7C63.0908 33.9987 62.6908 34.4253 62.4028 34.98C62.1148 35.5347 61.9708 36.1747 61.9708 36.9C61.9708 37.6467 62.1148 38.2973 62.4028 38.852C62.7015 39.4067 63.1122 39.8333 63.6348 40.132C64.1575 40.4307 64.7655 40.58 65.4588 40.58C66.3122 40.58 67.0108 40.356 67.5548 39.908C68.0988 39.4493 68.4562 38.8147 68.6268 38.004H64.7868V36.292H70.8348V38.244C70.6855 39.0227 70.3655 39.7427 69.8748 40.404C69.3842 41.0653 68.7495 41.5987 67.9708 42.004C67.2028 42.3987 66.3388 42.596 65.3788 42.596C64.3015 42.596 63.3255 42.356 62.4508 41.876C61.5868 41.3853 60.9042 40.708 60.4028 39.844C59.9122 38.98 59.6668 37.9987 59.6668 36.9C59.6668 35.8013 59.9122 34.82 60.4028 33.956C60.9042 33.0813 61.5868 32.404 62.4508 31.924C63.3255 31.4333 64.2962 31.188 65.3628 31.188C66.6215 31.188 67.7148 31.4973 68.6428 32.116C69.5708 32.724 70.2108 33.5827 70.5628 34.692H67.9868ZM76.4281 42.644C75.5748 42.644 74.8068 42.4573 74.1241 42.084C73.4414 41.7 72.9028 41.1613 72.5081 40.468C72.1241 39.7747 71.9321 38.9747 71.9321 38.068C71.9321 37.1613 72.1294 36.3613 72.5241 35.668C72.9294 34.9747 73.4788 34.4413 74.1721 34.068C74.8654 33.684 75.6388 33.492 76.4921 33.492C77.3454 33.492 78.1188 33.684 78.8121 34.068C79.5054 34.4413 80.0494 34.9747 80.4441 35.668C80.8494 36.3613 81.0521 37.1613 81.0521 38.068C81.0521 38.9747 80.8441 39.7747 80.4281 40.468C80.0228 41.1613 79.4681 41.7 78.7641 42.084C78.0708 42.4573 77.2921 42.644 76.4281 42.644ZM76.4281 40.692C76.8334 40.692 77.2121 40.596 77.5641 40.404C77.9268 40.2013 78.2148 39.9027 78.4281 39.508C78.6414 39.1133 78.7481 38.6333 78.7481 38.068C78.7481 37.2253 78.5241 36.58 78.0761 36.132C77.6388 35.6733 77.1001 35.444 76.4601 35.444C75.8201 35.444 75.2814 35.6733 74.8441 36.132C74.4174 36.58 74.2041 37.2253 74.2041 38.068C74.2041 38.9107 74.4121 39.5613 74.8281 40.02C75.2548 40.468 75.7881 40.692 76.4281 40.692ZM86.6312 42.644C85.7779 42.644 85.0099 42.4573 84.3272 42.084C83.6445 41.7 83.1059 41.1613 82.7112 40.468C82.3272 39.7747 82.1352 38.9747 82.1352 38.068C82.1352 37.1613 82.3325 36.3613 82.7272 35.668C83.1325 34.9747 83.6819 34.4413 84.3752 34.068C85.0685 33.684 85.8419 33.492 86.6952 33.492C87.5485 33.492 88.3219 33.684 89.0152 34.068C89.7085 34.4413 90.2525 34.9747 90.6472 35.668C91.0525 36.3613 91.2552 37.1613 91.2552 38.068C91.2552 38.9747 91.0472 39.7747 90.6312 40.468C90.2259 41.1613 89.6712 41.7 88.9672 42.084C88.2739 42.4573 87.4952 42.644 86.6312 42.644ZM86.6312 40.692C87.0365 40.692 87.4152 40.596 87.7672 40.404C88.1299 40.2013 88.4179 39.9027 88.6312 39.508C88.8445 39.1133 88.9512 38.6333 88.9512 38.068C88.9512 37.2253 88.7272 36.58 88.2792 36.132C87.8419 35.6733 87.3032 35.444 86.6632 35.444C86.0232 35.444 85.4845 35.6733 85.0472 36.132C84.6205 36.58 84.4072 37.2253 84.4072 38.068C84.4072 38.9107 84.6152 39.5613 85.0312 40.02C85.4579 40.468 85.9912 40.692 86.6312 40.692ZM96.3703 33.492C97.0317 33.492 97.613 33.6253 98.1143 33.892C98.6157 34.148 99.0103 34.484 99.2983 34.9V33.636H101.554V42.564C101.554 43.3853 101.389 44.116 101.058 44.756C100.728 45.4067 100.232 45.9187 99.5703 46.292C98.909 46.676 98.109 46.868 97.1703 46.868C95.9117 46.868 94.877 46.5747 94.0663 45.988C93.2663 45.4013 92.813 44.6013 92.7063 43.588H94.9303C95.0477 43.9933 95.2983 44.3133 95.6823 44.548C96.077 44.7933 96.5517 44.916 97.1063 44.916C97.757 44.916 98.285 44.7187 98.6903 44.324C99.0957 43.94 99.2983 43.3533 99.2983 42.564V41.188C99.0103 41.604 98.6103 41.9507 98.0983 42.228C97.597 42.5053 97.021 42.644 96.3703 42.644C95.6237 42.644 94.941 42.452 94.3223 42.068C93.7037 41.684 93.213 41.1453 92.8503 40.452C92.4983 39.748 92.3223 38.9427 92.3223 38.036C92.3223 37.14 92.4983 36.3453 92.8503 35.652C93.213 34.9587 93.6983 34.4253 94.3063 34.052C94.925 33.6787 95.613 33.492 96.3703 33.492ZM99.2983 38.068C99.2983 37.524 99.1917 37.06 98.9783 36.676C98.765 36.2813 98.477 35.9827 98.1143 35.78C97.7517 35.5667 97.3623 35.46 96.9463 35.46C96.5303 35.46 96.1463 35.5613 95.7943 35.764C95.4423 35.9667 95.1543 36.2653 94.9303 36.66C94.717 37.044 94.6103 37.5027 94.6103 38.036C94.6103 38.5693 94.717 39.0387 94.9303 39.444C95.1543 39.8387 95.4423 40.1427 95.7943 40.356C96.157 40.5693 96.541 40.676 96.9463 40.676C97.3623 40.676 97.7517 40.5747 98.1143 40.372C98.477 40.1587 98.765 39.86 98.9783 39.476C99.1917 39.0813 99.2983 38.612 99.2983 38.068ZM105.982 30.66V42.5H103.742V30.66H105.982ZM116.435 37.876C116.435 38.196 116.414 38.484 116.371 38.74H109.891C109.945 39.38 110.169 39.8813 110.563 40.244C110.958 40.6067 111.443 40.788 112.019 40.788C112.851 40.788 113.443 40.4307 113.795 39.716H116.211C115.955 40.5693 115.465 41.2733 114.739 41.828C114.014 42.372 113.123 42.644 112.067 42.644C111.214 42.644 110.446 42.4573 109.763 42.084C109.091 41.7 108.563 41.1613 108.179 40.468C107.806 39.7747 107.619 38.9747 107.619 38.068C107.619 37.1507 107.806 36.3453 108.179 35.652C108.553 34.9587 109.075 34.4253 109.747 34.052C110.419 33.6787 111.193 33.492 112.067 33.492C112.91 33.492 113.662 33.6733 114.323 34.036C114.995 34.3987 115.513 34.916 115.875 35.588C116.249 36.2493 116.435 37.012 116.435 37.876ZM114.115 37.236C114.105 36.66 113.897 36.2013 113.491 35.86C113.086 35.508 112.59 35.332 112.003 35.332C111.449 35.332 110.979 35.5027 110.595 35.844C110.222 36.1747 109.993 36.6387 109.907 37.236H114.115ZM130.027 34.788C130.027 35.3853 129.883 35.9453 129.595 36.468C129.317 36.9907 128.875 37.412 128.267 37.732C127.669 38.052 126.912 38.212 125.995 38.212H124.123V42.5H121.883V31.332H125.995C126.859 31.332 127.595 31.4813 128.203 31.78C128.811 32.0787 129.264 32.4893 129.563 33.012C129.872 33.5347 130.027 34.1267 130.027 34.788ZM125.899 36.404C126.517 36.404 126.976 36.2653 127.275 35.988C127.573 35.7 127.723 35.3 127.723 34.788C127.723 33.7 127.115 33.156 125.899 33.156H124.123V36.404H125.899ZM133.857 30.66V42.5H131.617V30.66H133.857ZM135.494 38.036C135.494 37.14 135.67 36.3453 136.022 35.652C136.385 34.9587 136.87 34.4253 137.478 34.052C138.097 33.6787 138.785 33.492 139.542 33.492C140.204 33.492 140.78 33.6253 141.27 33.892C141.772 34.1587 142.172 34.4947 142.47 34.9V33.636H144.726V42.5H142.47V41.204C142.182 41.62 141.782 41.9667 141.27 42.244C140.769 42.5107 140.188 42.644 139.526 42.644C138.78 42.644 138.097 42.452 137.478 42.068C136.87 41.684 136.385 41.1453 136.022 40.452C135.67 39.748 135.494 38.9427 135.494 38.036ZM142.47 38.068C142.47 37.524 142.364 37.06 142.15 36.676C141.937 36.2813 141.649 35.9827 141.286 35.78C140.924 35.5667 140.534 35.46 140.118 35.46C139.702 35.46 139.318 35.5613 138.966 35.764C138.614 35.9667 138.326 36.2653 138.102 36.66C137.889 37.044 137.782 37.5027 137.782 38.036C137.782 38.5693 137.889 39.0387 138.102 39.444C138.326 39.8387 138.614 40.1427 138.966 40.356C139.329 40.5693 139.713 40.676 140.118 40.676C140.534 40.676 140.924 40.5747 141.286 40.372C141.649 40.1587 141.937 39.86 142.15 39.476C142.364 39.0813 142.47 38.612 142.47 38.068ZM155.394 33.636L149.906 46.692H147.522L149.442 42.276L145.89 33.636H148.402L150.69 39.828L153.01 33.636H155.394Z" fill="white"/>
</g>
<defs>
<filter id="filter0_d_1_35" x="0" y="0" width="179" height="78" filterUnits="userSpaceOnUse" color-interpolation-filters="sRGB">
<feFlood flood-opacity="0" result="BackgroundImageFix"/>
<feColorMatrix in="SourceAlpha" type="matrix" values="0 0 0 0 0 0 0 0 0 0 0 0 0 0 0 0 0 0 127 0" result="hardAlpha"/>
<feMorphology radius="3" operator="dilate" in="SourceAlpha" result="effect1_dropShadow_1_35"/>
<feOffset dy="8"/>
<feGaussianBlur stdDeviation="6"/>
<feComposite in2="hardAlpha" operator="out"/>
<feColorMatrix type="matrix" values="0 0 0 0 0 0 0 0 0 0 0 0 0 0 0 0 0 0 0.25 0"/>
<feBlend mode="normal" in2="BackgroundImageFix" result="effect1_dropShadow_1_35"/>
<feBlend mode="normal" in="SourceGraphic" in2="effect1_dropShadow_1_35" result="shape"/>
</filter>
</defs>
</svg>
